[img]http://s15.postimage.org/4o591o463/nick_new_sign.jpg[/img]

Proudly Present

======================================================================
Dabangg 2 (2012) Hindi SCAMRip MPEG1 NiCkkkDoN
======================================================================

[img]http://s9.postimage.org/r32i52uan/png.png[/img]

[b]Release Info:[/b]

[code]
General
Format                           : MPEG-PS
File size                        : 661 MiB
Duration                         : 1h 54mn
Overall bit rate                 : 808 Kbps

Video
ID                               : 224 (0xE0)
Format                           : MPEG Video
Format version                   : Version 2
Format profile                   : Main@Main
Format settings, BVOP            : Yes
Format settings, Matrix          : Default
Duration                         : 1h 54mn
Bit rate mode                    : Variable
Bit rate                         : 664 Kbps
Nominal bit rate                 : 9 672 Kbps
Width                            : 352 pixels
Height                           : 288 pixels
Display aspect ratio             : 4:3
Frame rate                       : 25.000 fps
Standard                         : PAL
Color space                      : YUV
Chroma subsampling               : 4:2:0
Bit depth                        : 8 bits
Scan type                        : Progressive
Compression mode                 : Lossy
Bits/(Pixel*Frame)               : 0.262
Stream size                      : 543 MiB (82%)

Audio
ID                               : 192 (0xC0)
Format                           : MPEG Audio
Format version                   : Version 1
Format profile                   : Layer 2
Duration                         : 1h 54mn
Bit rate mode                    : Constant
Bit rate                         : 128 Kbps
Channel(s)                       : 2 channels
Sampling rate                    : 48.0 KHz
Compression mode                 : Lossy
Delay relative to video          : -600ms
Stream size                      : 105 MiB (16%)
[/code]

[b]Screenshots:[/b]

[b]NiCkkkDoN's Notes[/b]

[code]
Enjoy 1st day LaSt Sh0W

Have anything to offer????......
Contact me
[/code]